<svg xmlns="http://www.w3.org/2000/svg" width="21.463" height="21.463" viewBox="0 0 21.463 21.463"><defs><style>.a{isolation:isolate;}.b{fill-rule:evenodd;}</style></defs><g transform="translate(-4.415 -4.415)"><g class="a" transform="translate(9.614 9.614)"><g transform="translate(0 0)"><path class="b" d="M37.358,31.944H32.885V27.471a.471.471,0,1,0-.942,0v4.473H27.471a.471.471,0,1,0,0,.942h4.473v4.473a.471.471,0,0,0,.942,0V32.885h4.473a.471.471,0,0,0,0-.942Z" transform="translate(-26.882 -26.882)"/><path d="M32.032,37.565a.589.589,0,0,1-.589-.589V32.621H27.089a.589.589,0,0,1,0-1.177h4.355V27.089a.589.589,0,0,1,1.177,0v4.355h4.355a.589.589,0,1,1,0,1.177H32.621v4.355A.589.589,0,0,1,32.032,37.565Zm-4.944-5.885a.353.353,0,0,0,0,.706h4.591v4.591a.353.353,0,0,0,.706,0V32.385h4.591a.353.353,0,0,0,0-.706H32.385V27.089a.353.353,0,0,0-.706,0v4.591Z" transform="translate(-26.5 -26.5)"/></g></g><g class="a" transform="translate(4.415 4.415)"><path d="M15.147,25.878A10.732,10.732,0,1,1,25.878,15.147,10.744,10.744,0,0,1,15.147,25.878Zm0-20.286A9.555,9.555,0,1,0,24.7,15.147,9.566,9.566,0,0,0,15.147,5.592Z" transform="translate(-4.415 -4.415)"/></g></g></svg>