<svg xmlns="http://www.w3.org/2000/svg" width="19.168" height="21.493" viewBox="0 0 19.168 21.493"><defs><style>.a{fill:#f86600;}</style></defs><g transform="translate(-14 -9.85)"><g transform="translate(14 9.85)"><path class="a" d="M15.691,31.343h3.946a1.626,1.626,0,0,0,1.691-1.607v-6.2a.644.644,0,0,1,.564-.648h3.1a.644.644,0,0,1,.564.648v6.2a1.626,1.626,0,0,0,1.691,1.607h4.228a1.626,1.626,0,0,0,1.691-1.607v-10.8a1.729,1.729,0,0,0-.536-1.24L24.74,10.315a1.668,1.668,0,0,0-2.311,0L14.536,17.7A1.682,1.682,0,0,0,14,18.941v10.8A1.626,1.626,0,0,0,15.691,31.343Zm-.564-12.4a.574.574,0,0,1,.169-.423l7.893-7.385a.563.563,0,0,1,.761,0l7.893,7.385a.574.574,0,0,1,.169.423v10.8a.5.5,0,0,1-.564.479h-4.2a.5.5,0,0,1-.564-.479v-6.2a1.771,1.771,0,0,0-1.691-1.776h-3.1A1.752,1.752,0,0,0,20.2,23.535v6.2a.5.5,0,0,1-.564.479H15.691a.5.5,0,0,1-.564-.479Z" transform="translate(-14 -9.85)"/></g></g></svg>