<svg xmlns="http://www.w3.org/2000/svg" width="22.279" height="18.972" viewBox="0 0 22.279 18.972"><g transform="translate(-21.812 -25.996)"><path d="M39.221,31.554H53.669a.593.593,0,0,0,0-1.186H39.221a.593.593,0,0,0,0,1.186Z" transform="translate(-10.171 -2.644)"/><path d="M53.669,48.5H39.221a.593.593,0,0,0,0,1.186H53.669a.593.593,0,1,0,0-1.186Z" transform="translate(-10.171 -13.611)"/><path d="M53.669,66.632H39.221a.593.593,0,0,0,0,1.186H53.669a.593.593,0,1,0,0-1.186Z" transform="translate(-10.171 -24.577)"/><path d="M24.133,26a2.321,2.321,0,1,0,2.321,2.321A2.323,2.323,0,0,0,24.133,26Zm0,3.455a1.135,1.135,0,1,1,1.135-1.135A1.136,1.136,0,0,1,24.133,29.451Z" transform="translate(0 0)"/><path d="M24.133,44.128a2.321,2.321,0,1,0,2.321,2.321A2.323,2.323,0,0,0,24.133,44.128Zm0,3.455a1.135,1.135,0,1,1,1.135-1.135A1.136,1.136,0,0,1,24.133,47.583Z" transform="translate(0 -10.967)"/><path d="M24.133,62.261a2.321,2.321,0,1,0,2.321,2.321A2.323,2.323,0,0,0,24.133,62.261Zm0,3.455a1.135,1.135,0,1,1,1.135-1.135A1.136,1.136,0,0,1,24.133,65.716Z" transform="translate(0 -21.934)"/></g></svg>